<?xml version="1.0" encoding="UTF-8" standalone="no"?> <!-- Created with Vectornator for iOS (http://vectornator.io/) --><!DOCTYPE svg PUBLIC "-//W3C//DTD SVG 1.1//EN" "http://www.w3.org/Graphics/SVG/1.1/DTD/svg11.dtd">
<svg height="100%" style="fill-rule:nonzero;clip-rule:evenodd;stroke-linecap:round;stroke-linejoin:round;" xmlns:xlink="http://www.w3.org/1999/xlink" xmlns="http://www.w3.org/2000/svg" xml:space="preserve" width="100%" xmlns:vectornator="http://vectornator.io" version="1.1" viewBox="0 0 568 320">
<metadata>
<vectornator:setting key="Units" value="Points"/>
<vectornator:setting key="DynamicGuides" value="0"/>
<vectornator:setting key="SnapToEdges" value="0"/>
<vectornator:setting key="SnapToPoints" value="0"/>
<vectornator:setting key="IsolateActiveLayer" value="0"/>
<vectornator:setting key="SnapToGuides" value="1"/>
<vectornator:setting key="DimensionsVisible" value="1"/>
<vectornator:setting key="OutlineMode" value="0"/>
<vectornator:setting key="SnapToGrid" value="0"/>
<vectornator:setting key="TimeLapseWatermarkDisabled" value="0"/>
<vectornator:setting key="doHistoryDisabled" value="0"/>
<vectornator:setting key="RulersVisible" value="1"/>
<vectornator:setting key="PencilOnly" value="0"/>
<vectornator:setting key="CMYKEnabledKey" value="0"/>
<vectornator:setting key="DisplayWhiteBackground" value="0"/>
<vectornator:setting key="GuidesVisible" value="1"/>
</metadata>
<defs/>
<g id="Layer 1" vectornator:layerName="Layer 1">
<path stroke="#000000" stroke-width="1" d="M234.424+55.2735C234.424+41.6704+245.94+30.6429+260.145+30.6429C274.35+30.6429+285.866+41.6704+285.866+55.2735C285.866+68.8767+274.35+79.9041+260.145+79.9041C245.94+79.9041+234.424+68.8767+234.424+55.2735Z" fill="#63aae0" stroke-linecap="round" opacity="1" stroke-linejoin="round"/>
<path stroke="#000000" stroke-width="1" d="M175.154+125.112C175.154+111.509+186.67+100.482+200.875+100.482C215.081+100.482+226.596+111.509+226.596+125.112C226.596+138.716+215.081+149.743+200.875+149.743C186.67+149.743+175.154+138.716+175.154+125.112Z" fill="#63aae0" stroke-linecap="round" opacity="1" stroke-linejoin="round"/>
<path stroke="#000000" stroke-width="1" d="M293.65+124.17C293.65+110.567+305.165+99.5393+319.371+99.5393C333.576+99.5393+345.092+110.567+345.092+124.17C345.092+137.773+333.576+148.8+319.371+148.8C305.165+148.8+293.65+137.773+293.65+124.17Z" fill="#63aae0" stroke-linecap="round" opacity="1" stroke-linejoin="round"/>
<path stroke="#000000" stroke-width="1" d="M138.046+205.589C138.046+191.986+149.561+180.958+163.767+180.958C177.972+180.958+189.488+191.986+189.488+205.589C189.488+219.192+177.972+230.219+163.767+230.219C149.561+230.219+138.046+219.192+138.046+205.589Z" fill="#63aae0" stroke-linecap="round" opacity="1" stroke-linejoin="round"/>
<path stroke="#000000" stroke-width="1" d="M206.677+205.844C206.677+192.241+218.193+181.213+232.398+181.213C246.603+181.213+258.119+192.241+258.119+205.844C258.119+219.447+246.603+230.474+232.398+230.474C218.193+230.474+206.677+219.447+206.677+205.844Z" fill="#63aae0" stroke-linecap="round" opacity="1" stroke-linejoin="round"/>
<path stroke="#000000" stroke-width="1" d="M353.654+205.231C353.654+191.628+365.169+180.6+379.374+180.6C393.58+180.6+405.095+191.628+405.095+205.231C405.095+218.834+393.58+229.861+379.374+229.861C365.169+229.861+353.654+218.834+353.654+205.231Z" fill="#63aae0" stroke-linecap="round" opacity="1" stroke-linejoin="round"/>
<path stroke="#000000" stroke-width="1" d="M241.669+71.2602L215.616+103.801" fill="none" stroke-linecap="round" opacity="1" stroke-linejoin="round"/>
<path stroke="#000000" stroke-width="1" d="M184.779+145.754L170.65+181.144" fill="none" stroke-linecap="round" opacity="1" stroke-linejoin="round"/>
<path stroke="#000000" stroke-width="1" d="M208.997+150.059L227.047+180.819" fill="none" stroke-linecap="round" opacity="1" stroke-linejoin="round"/>
<path stroke="#000000" stroke-width="1" d="M280.943+71.7014L309.851+100.805" fill="none" stroke-linecap="round" opacity="1" stroke-linejoin="round"/>
<path stroke="#000000" stroke-width="1" d="M334.543+144.268L367.567+183.375" fill="none" stroke-linecap="round" opacity="1" stroke-linejoin="round"/>
<g opacity="1">
<path d="M251.323+53.1644C252.253+53.1644+252.979+52.9046+253.503+52.3851C254.026+51.8655+254.288+51.2464+254.288+50.5276C254.288+49.9026+254.038+49.3284+253.538+48.805C253.038+48.2815+252.276+48.0198+251.253+48.0198C250.237+48.0198+249.503+48.2815+249.05+48.805C248.596+49.3284+248.37+49.9417+248.37+50.6448C248.37+51.4339+248.663+52.0511+249.249+52.4964C249.835+52.9417+250.526+53.1644+251.323+53.1644ZM251.452+61.473C252.428+61.473+253.239+61.2093+253.884+60.6819C254.528+60.1546+254.85+59.3675+254.85+58.3206C254.85+57.2347+254.518+56.4105+253.854+55.848C253.19+55.2855+252.339+55.0042+251.3+55.0042C250.292+55.0042+249.469+55.2913+248.833+55.8655C248.196+56.4398+247.878+57.2347+247.878+58.2503C247.878+59.1253+248.169+59.8812+248.751+60.5179C249.333+61.1546+250.233+61.473+251.452+61.473ZM248.452+53.973C247.866+53.723+247.409+53.43+247.081+53.094C246.464+52.469+246.155+51.6565+246.155+50.6565C246.155+49.4065+246.608+48.3323+247.514+47.4339C248.421+46.5355+249.706+46.0862+251.37+46.0862C252.979+46.0862+254.241+46.5101+255.155+47.3577C256.069+48.2054+256.526+49.1956+256.526+50.3284C256.526+51.3753+256.26+52.223+255.729+52.8714C255.432+53.2386+254.971+53.598+254.346+53.9495C255.042+54.2698+255.589+54.637+255.987+55.0511C256.729+55.8323+257.1+56.848+257.1+58.098C257.1+59.5745+256.604+60.8265+255.612+61.8538C254.62+62.8812+253.218+63.3948+251.405+63.3948C249.772+63.3948+248.391+62.9515+247.262+62.0648C246.134+61.178+245.569+59.8909+245.569+58.2034C245.569+57.2112+245.811+56.3538+246.296+55.6312C246.78+54.9085+247.499+54.3558+248.452+53.973Z" opacity="1" fill="#000000"/>
<path d="M264.671+53.1644C265.6+53.1644+266.327+52.9046+266.85+52.3851C267.374+51.8655+267.635+51.2464+267.635+50.5276C267.635+49.9026+267.385+49.3284+266.885+48.805C266.385+48.2815+265.624+48.0198+264.6+48.0198C263.585+48.0198+262.85+48.2815+262.397+48.805C261.944+49.3284+261.718+49.9417+261.718+50.6448C261.718+51.4339+262.01+52.0511+262.596+52.4964C263.182+52.9417+263.874+53.1644+264.671+53.1644ZM264.8+61.473C265.776+61.473+266.587+61.2093+267.231+60.6819C267.876+60.1546+268.198+59.3675+268.198+58.3206C268.198+57.2347+267.866+56.4105+267.202+55.848C266.538+55.2855+265.686+55.0042+264.647+55.0042C263.639+55.0042+262.817+55.2913+262.18+55.8655C261.544+56.4398+261.225+57.2347+261.225+58.2503C261.225+59.1253+261.516+59.8812+262.098+60.5179C262.68+61.1546+263.581+61.473+264.8+61.473ZM261.8+53.973C261.214+53.723+260.757+53.43+260.428+53.094C259.811+52.469+259.503+51.6565+259.503+50.6565C259.503+49.4065+259.956+48.3323+260.862+47.4339C261.768+46.5355+263.053+46.0862+264.718+46.0862C266.327+46.0862+267.589+46.5101+268.503+47.3577C269.417+48.2054+269.874+49.1956+269.874+50.3284C269.874+51.3753+269.608+52.223+269.077+52.8714C268.78+53.2386+268.319+53.598+267.694+53.9495C268.389+54.2698+268.936+54.637+269.335+55.0511C270.077+55.8323+270.448+56.848+270.448+58.098C270.448+59.5745+269.952+60.8265+268.96+61.8538C267.968+62.8812+266.565+63.3948+264.753+63.3948C263.12+63.3948+261.739+62.9515+260.61+62.0648C259.481+61.178+258.917+59.8909+258.917+58.2034C258.917+57.2112+259.159+56.3538+259.643+55.6312C260.128+54.9085+260.846+54.3558+261.8+53.973Z" opacity="1" fill="#000000"/>
</g>
<g opacity="1">
<path d="M186.364+131.568C186.442+130.122+186.741+128.865+187.261+127.794C187.78+126.724+188.794+125.751+190.302+124.876L192.552+123.575C193.56+122.99+194.267+122.49+194.673+122.075C195.314+121.427+195.634+120.685+195.634+119.849C195.634+118.872+195.341+118.097+194.755+117.523C194.169+116.948+193.388+116.661+192.411+116.661C190.966+116.661+189.966+117.208+189.411+118.302C189.114+118.888+188.95+119.7+188.919+120.74L186.775+120.74C186.798+119.279+187.067+118.087+187.583+117.165C188.497+115.54+190.11+114.728+192.423+114.728C194.345+114.728+195.749+115.247+196.636+116.286C197.523+117.325+197.966+118.482+197.966+119.755C197.966+121.099+197.493+122.247+196.548+123.2C196.001+123.755+195.021+124.427+193.607+125.216L192.001+126.107C191.235+126.529+190.634+126.931+190.196+127.314C189.415+127.993+188.923+128.747+188.72+129.575L197.884+129.575L197.884+131.568L186.364+131.568Z" opacity="1" fill="#000000"/>
<path d="M201.927+127.29C202.067+128.493+202.626+129.325+203.603+129.786C204.103+130.021+204.681+130.138+205.337+130.138C206.587+130.138+207.513+129.74+208.114+128.943C208.716+128.146+209.017+127.263+209.017+126.294C209.017+125.122+208.659+124.216+207.944+123.575C207.23+122.935+206.372+122.615+205.372+122.615C204.646+122.615+204.023+122.755+203.503+123.036C202.984+123.318+202.54+123.708+202.173+124.208L200.345+124.103L201.622+115.068L210.341+115.068L210.341+117.107L203.204+117.107L202.489+121.771C202.88+121.474+203.251+121.251+203.603+121.103C204.228+120.845+204.95+120.716+205.771+120.716C207.31+120.716+208.614+121.212+209.685+122.204C210.755+123.197+211.29+124.454+211.29+125.978C211.29+127.564+210.8+128.962+209.819+130.173C208.839+131.384+207.275+131.99+205.126+131.99C203.759+131.99+202.55+131.605+201.499+130.835C200.448+130.066+199.86+128.884+199.735+127.29L201.927+127.29Z" opacity="1" fill="#000000"/>
</g>
<g opacity="1">
<path d="M310.259+131.714C308.274+131.714+306.835+131.169+305.94+130.08C305.046+128.99+304.599+127.664+304.599+126.101L306.802+126.101C306.896+127.187+307.099+127.976+307.411+128.468C307.958+129.351+308.946+129.793+310.376+129.793C311.485+129.793+312.376+129.496+313.048+128.902C313.72+128.308+314.056+127.543+314.056+126.605C314.056+125.449+313.702+124.64+312.995+124.179C312.288+123.718+311.306+123.488+310.048+123.488C309.907+123.488+309.765+123.49+309.62+123.494C309.476+123.498+309.329+123.503+309.181+123.511L309.181+121.648C309.399+121.671+309.583+121.687+309.731+121.695C309.88+121.703+310.04+121.707+310.212+121.707C311.001+121.707+311.649+121.582+312.157+121.332C313.048+120.894+313.493+120.113+313.493+118.988C313.493+118.152+313.196+117.507+312.603+117.054C312.009+116.601+311.317+116.375+310.528+116.375C309.122+116.375+308.149+116.843+307.61+117.781C307.314+118.296+307.146+119.031+307.106+119.984L305.021+119.984C305.021+118.734+305.271+117.671+305.771+116.796C306.63+115.234+308.142+114.453+310.306+114.453C312.017+114.453+313.341+114.834+314.278+115.595C315.216+116.357+315.685+117.46+315.685+118.906C315.685+119.937+315.407+120.773+314.853+121.414C314.509+121.812+314.064+122.125+313.517+122.351C314.399+122.593+315.089+123.06+315.585+123.751C316.081+124.443+316.329+125.289+316.329+126.289C316.329+127.89+315.802+129.195+314.747+130.203C313.692+131.21+312.196+131.714+310.259+131.714Z" opacity="1" fill="#000000"/>
<path d="M324.392+114.406C326.267+114.406+327.573+114.892+328.312+115.865C329.05+116.837+329.419+117.839+329.419+118.871L327.333+118.871C327.208+118.207+327.009+117.687+326.735+117.312C326.228+116.609+325.458+116.257+324.427+116.257C323.247+116.257+322.31+116.802+321.614+117.892C320.919+118.982+320.532+120.543+320.454+122.574C320.939+121.863+321.548+121.332+322.282+120.98C322.954+120.668+323.704+120.511+324.532+120.511C325.939+120.511+327.165+120.96+328.212+121.859C329.259+122.757+329.782+124.097+329.782+125.878C329.782+127.402+329.286+128.751+328.294+129.927C327.302+131.103+325.888+131.691+324.052+131.691C322.481+131.691+321.126+131.095+319.985+129.904C318.845+128.712+318.274+126.707+318.274+123.886C318.274+121.8+318.528+120.031+319.036+118.578C320.013+115.796+321.798+114.406+324.392+114.406ZM324.239+129.816C325.349+129.816+326.179+129.443+326.73+128.697C327.28+127.951+327.556+127.07+327.556+126.054C327.556+125.195+327.31+124.376+326.817+123.599C326.325+122.822+325.431+122.433+324.134+122.433C323.228+122.433+322.433+122.734+321.749+123.335C321.065+123.937+320.724+124.843+320.724+126.054C320.724+127.117+321.034+128.009+321.655+128.732C322.276+129.455+323.138+129.816+324.239+129.816Z" opacity="1" fill="#000000"/>
</g>
<g opacity="1">
<path d="M365.7+213.214C365.778+211.769+366.077+210.511+366.597+209.441C367.116+208.371+368.13+207.398+369.638+206.523L371.888+205.222C372.896+204.636+373.603+204.136+374.009+203.722C374.649+203.074+374.97+202.332+374.97+201.496C374.97+200.519+374.677+199.744+374.091+199.169C373.505+198.595+372.724+198.308+371.747+198.308C370.302+198.308+369.302+198.855+368.747+199.949C368.45+200.535+368.286+201.347+368.255+202.386L366.11+202.386C366.134+200.925+366.403+199.734+366.919+198.812C367.833+197.187+369.446+196.375+371.759+196.375C373.681+196.375+375.085+196.894+375.972+197.933C376.858+198.972+377.302+200.128+377.302+201.402C377.302+202.746+376.829+203.894+375.884+204.847C375.337+205.402+374.356+206.074+372.942+206.863L371.337+207.753C370.571+208.175+369.97+208.578+369.532+208.96C368.751+209.64+368.259+210.394+368.056+211.222L377.22+211.222L377.22+213.214L365.7+213.214Z" opacity="1" fill="#000000"/>
<path d="M390.849+196.714L390.849+198.554C390.31+199.078+389.593+199.988+388.698+201.285C387.804+202.582+387.013+203.98+386.325+205.48C385.646+206.941+385.13+208.273+384.778+209.476C384.552+210.25+384.259+211.496+383.899+213.214L381.567+213.214C382.099+210.011+383.271+206.824+385.083+203.652C386.153+201.793+387.278+200.187+388.458+198.835L379.177+198.835L379.177+196.714L390.849+196.714Z" opacity="1" fill="#000000"/>
</g>
<g opacity="1">
<path d="M149.71+198.971L149.71+197.354C151.233+197.205+152.296+196.957+152.897+196.61C153.499+196.262+153.948+195.44+154.245+194.143L155.909+194.143L155.909+210.854L153.659+210.854L153.659+198.971L149.71+198.971Z" opacity="1" fill="#000000"/>
<path d="M173.311+194.354L173.311+196.194C172.772+196.717+172.055+197.627+171.161+198.924C170.266+200.221+169.475+201.619+168.788+203.119C168.108+204.58+167.592+205.912+167.241+207.116C167.014+207.889+166.721+209.135+166.362+210.854L164.03+210.854C164.561+207.651+165.733+204.463+167.546+201.291C168.616+199.432+169.741+197.826+170.921+196.475L161.639+196.475L161.639+194.354L173.311+194.354Z" opacity="1" fill="#000000"/>
</g>
<g opacity="1">
<path d="M231.296+213.548C229.312+213.548+227.873+213.003+226.978+211.913C226.084+210.823+225.636+209.497+225.636+207.935L227.839+207.935C227.933+209.021+228.136+209.81+228.449+210.302C228.996+211.185+229.984+211.626+231.414+211.626C232.523+211.626+233.414+211.329+234.086+210.735C234.757+210.142+235.093+209.376+235.093+208.439C235.093+207.282+234.74+206.474+234.033+206.013C233.326+205.552+232.343+205.321+231.086+205.321C230.945+205.321+230.802+205.323+230.658+205.327C230.513+205.331+230.367+205.337+230.218+205.345L230.218+203.482C230.437+203.505+230.621+203.521+230.769+203.528C230.918+203.536+231.078+203.54+231.25+203.54C232.039+203.54+232.687+203.415+233.195+203.165C234.086+202.728+234.531+201.946+234.531+200.821C234.531+199.985+234.234+199.341+233.64+198.888C233.046+198.435+232.355+198.208+231.566+198.208C230.16+198.208+229.187+198.677+228.648+199.614C228.351+200.13+228.183+200.864+228.144+201.818L226.058+201.818C226.058+200.568+226.308+199.505+226.808+198.63C227.668+197.068+229.179+196.286+231.343+196.286C233.054+196.286+234.379+196.667+235.316+197.429C236.254+198.191+236.722+199.294+236.722+200.739C236.722+201.771+236.445+202.607+235.89+203.247C235.546+203.646+235.101+203.958+234.554+204.185C235.437+204.427+236.127+204.894+236.623+205.585C237.119+206.277+237.367+207.122+237.367+208.122C237.367+209.724+236.839+211.028+235.785+212.036C234.73+213.044+233.234+213.548+231.296+213.548Z" opacity="1" fill="#000000"/>
</g>
</g>
</svg>
